<svg width="48" height="33" viewBox="0 0 48 33" fill="none" xmlns="http://www.w3.org/2000/svg">
<path d="M0 23.5021V32.2168H6.51937V24.5693C6.51937 21.1773 8.44011 18.983 13.1131 18.829V12.4365C4.5269 12.5774 0 16.953 0 23.5021Z" fill="#FF6100"/>
<path d="M37.6764 12.1521C31.6246 12.186 27.2783 16.4573 27.2783 22.3279C27.2783 28.1256 30.902 31.9324 37.0228 32.5038L41.2973 29.3362L41.4435 29.4067V32.2168H48V22.3279C48 16.1703 43.8822 12.1156 37.6764 12.1521ZM37.6764 26.2417C35.4289 26.2417 33.8003 24.6032 33.8003 22.3279C33.8003 20.0527 35.4289 18.4142 37.6764 18.4142C39.9239 18.4142 41.478 20.0501 41.478 22.3279C41.478 24.6058 39.8973 26.2417 37.6764 26.2417Z" fill="#FF6100"/>
<path d="M23.9442 12.4365H17.4248V32.2194H23.9442V12.4365Z" fill="#FF6100"/>
<path d="M20.6844 1.20801C19.8249 1.20853 18.9849 1.45879 18.2705 1.92716C17.5561 2.39554 16.9994 3.06099 16.6709 3.83939C16.3423 4.61779 16.2567 5.4742 16.4247 6.30032C16.5927 7.12645 17.0068 7.88521 17.6147 8.48068C18.2227 9.07615 18.9971 9.48158 19.8401 9.64573C20.6831 9.80989 21.5569 9.72538 22.3509 9.40289C23.1449 9.08041 23.8236 8.53443 24.301 7.83399C24.7785 7.13354 25.0333 6.31008 25.0333 5.4677C25.0337 4.908 24.9214 4.35372 24.7029 3.83658C24.4845 3.31945 24.1641 2.84961 23.7602 2.45396C23.3562 2.05831 22.8766 1.74461 22.3489 1.53081C21.8211 1.31702 21.2555 1.20733 20.6844 1.20801Z" fill="#FF6100"/>
</svg>
