<svg width="32" height="32" viewBox="0 0 32 32" fill="none" xmlns="http://www.w3.org/2000/svg">
  <circle cx="16" cy="16" r="14" fill="#FF6100"/>
  <path d="M16 2C16 2 8 8 8 16C8 24 16 30 16 30" stroke="#FFF" stroke-width="2" fill="none"/>
  <path d="M16 2C16 2 24 8 24 16C24 24 16 30 16 30" stroke="#FFF" stroke-width="2" fill="none"/>
  <path d="M3 12C3 12 10 14 16 14C22 14 29 12 29 12" stroke="#FFF" stroke-width="2" fill="none"/>
  <path d="M3 20C3 20 10 18 16 18C22 18 29 20 29 20" stroke="#FFF" stroke-width="2" fill="none"/>
</svg>
